# Basic cube centered at origin (1x1x1)
# With proper per-face UVs

# ====================
# Vertices
# ====================
v -0.5 -5.0 -5.0
v  0.5 -5.0 -5.0
v  0.5  5.0 -5.0
v -0.5  5.0 -5.0

v -0.5 -5.0  5.0
v  0.5 -5.0  5.0
v  0.5  5.0  5.0
v -0.5  5.0  5.0

# ====================
# Texture coordinates
# ====================

# back face
vt 0.0 0.0
vt 1.0 0.0
vt 1.0 1.0
vt 0.0 1.0

# front face
vt 0.0 0.0
vt 1.0 0.0
vt 1.0 1.0
vt 0.0 1.0

# left face
vt 0.0 0.0
vt 1.0 0.0
vt 1.0 1.0
vt 0.0 1.0

# right face
vt 0.0 0.0
vt 1.0 0.0
vt 1.0 1.0
vt 0.0 1.0

# bottom face
vt 0.0 0.0
vt 1.0 0.0
vt 1.0 1.0
vt 0.0 1.0

# top face
vt 0.0 0.0
vt 1.0 0.0
vt 1.0 1.0
vt 0.0 1.0

# ====================
# Normals
# ====================
vn  0  0 -1
vn  0  0  1
vn -1  0  0
vn  1  0  0
vn  0 -1  0
vn  0  1  0

# ====================
# Faces
# format: v / vt / vn
# ====================

# Back face (vt 1–4)
f 3/3/1 2/2/1 1/1/1
f 4/4/1 3/3/1 1/1/1

# Front face (vt 5–8)
f 6/6/2 7/7/2 5/5/2
f 7/7/2 8/8/2 5/5/2

# Left face (vt 9–12)
f 8/12/3 4/11/3 1/9/3
f 5/10/3 8/12/3 1/9/3

# Right face (vt 13–16)
f 7/15/4 6/14/4 2/13/4
f 3/16/4 7/15/4 2/13/4

# Bottom face (vt 17–20)
f 6/18/5 5/17/5 1/19/5
f 2/20/5 6/18/5 1/19/5

# Top face (vt 21–24)
f 7/23/6 3/22/6 4/21/6
f 8/24/6 7/23/6 4/21/6